<svg width="13" height="13" viewBox="0 0 13 13" fill="none" xmlns="http://www.w3.org/2000/svg">
<path d="M11.35 2.55L1.57505 12.325C1.42505 12.475 1.25005 12.55 1.05005 12.55C0.850049 12.55 0.675049 12.475 0.525049 12.325C0.375049 12.175 0.300049 12 0.300049 11.8C0.300049 11.6 0.375049 11.425 0.525049 11.275L10.3 1.5H1.60005C1.38755 1.5 1.20947 1.42767 1.0658 1.283C0.921966 1.1385 0.850049 0.959334 0.850049 0.7455C0.850049 0.531834 0.921966 0.354167 1.0658 0.2125C1.20947 0.0708333 1.38755 0 1.60005 0H12.1C12.3125 0 12.4907 0.0718332 12.6345 0.2155C12.7782 0.359333 12.85 0.5375 12.85 0.75V11.25C12.85 11.4625 12.7777 11.6406 12.633 11.7843C12.4885 11.9281 12.3094 12 12.0955 12C11.8819 12 11.7042 11.9281 11.5625 11.7843C11.4209 11.6406 11.35 11.4625 11.35 11.25V2.55Z" fill="#014748"/>
</svg>
