<svg width="16" height="16" viewBox="0 0 16 16" fill="none" xmlns="http://www.w3.org/2000/svg">
<path d="M11.3332 15.35C11.1443 15.35 10.986 15.2833 10.8582 15.15C10.7305 15.0167 10.6666 14.8556 10.6666 14.6667C10.6666 14.4778 10.7305 14.3194 10.8582 14.1917C10.986 14.0639 11.1443 14 11.3332 14C12.0666 14 12.6943 13.7389 13.2166 13.2167C13.7388 12.6944 13.9999 12.0667 13.9999 11.3333C13.9999 11.1444 14.0666 10.9833 14.1999 10.85C14.3332 10.7167 14.4943 10.65 14.6832 10.65C14.8721 10.65 15.0305 10.7167 15.1582 10.85C15.286 10.9833 15.3499 11.1444 15.3499 11.3333C15.3499 12.4444 14.9582 13.3917 14.1749 14.175C13.3916 14.9583 12.4443 15.35 11.3332 15.35ZM1.33324 5.33333C1.14435 5.33333 0.983236 5.26945 0.849902 5.14167C0.716569 5.01389 0.649902 4.85556 0.649902 4.66667C0.649902 3.55556 1.04157 2.60833 1.8249 1.825C2.60824 1.04167 3.55546 0.650002 4.66657 0.650002C4.85546 0.650002 5.01657 0.71389 5.1499 0.841668C5.28324 0.969446 5.3499 1.12778 5.3499 1.31667C5.3499 1.50556 5.28324 1.66667 5.1499 1.8C5.01657 1.93333 4.85546 2 4.66657 2C3.93324 2 3.30546 2.26111 2.78324 2.78333C2.26101 3.30556 1.9999 3.93334 1.9999 4.66667C1.9999 4.85556 1.93601 5.01389 1.80824 5.14167C1.68046 5.26945 1.52212 5.33333 1.33324 5.33333ZM12.8166 2.95C12.9499 3.08334 13.0166 3.23889 13.0166 3.41667C13.0166 3.59445 12.9499 3.75 12.8166 3.88334L8.58324 8.13334C8.46101 8.26667 8.30824 8.33056 8.1249 8.325C7.94157 8.31945 7.78324 8.25556 7.6499 8.13334C7.51657 8 7.4499 7.84167 7.4499 7.65834C7.4499 7.475 7.51657 7.31667 7.6499 7.18334L11.8832 2.95C12.0166 2.81667 12.1721 2.75 12.3499 2.75C12.5277 2.75 12.6832 2.81667 12.8166 2.95ZM13.9999 5.06667C14.1332 5.2 14.1999 5.35834 14.1999 5.54167C14.1999 5.725 14.1332 5.88333 13.9999 6.01667L10.2332 9.78334C10.111 9.90556 9.95824 9.96667 9.7749 9.96667C9.59157 9.96667 9.43324 9.90556 9.2999 9.78334C9.16657 9.65 9.09713 9.49167 9.09157 9.30834C9.08601 9.125 9.1499 8.96667 9.28324 8.83333L13.0499 5.06667C13.1832 4.93334 13.3416 4.86667 13.5249 4.86667C13.7082 4.86667 13.8666 4.93334 13.9999 5.06667ZM3.51657 12.4833C2.50546 11.4722 1.9999 10.2556 1.9999 8.83333C1.9999 7.41111 2.50546 6.19445 3.51657 5.18334L5.0499 3.65C5.18324 3.51667 5.33879 3.45 5.51657 3.45C5.69435 3.45 5.8499 3.51667 5.98324 3.65L6.4999 4.16667C6.57768 4.24445 6.64435 4.325 6.6999 4.40833C6.75546 4.49167 6.81101 4.57778 6.86657 4.66667L9.33324 2.18333C9.46657 2.05 9.6249 1.98333 9.80824 1.98333C9.99157 1.98333 10.1499 2.05 10.2832 2.18333C10.4166 2.31667 10.4832 2.475 10.4832 2.65833C10.4832 2.84167 10.4166 3 10.2832 3.13333L7.3999 6.01667L5.98324 7.41667L6.2999 7.73334C6.81101 8.24445 7.05546 8.85556 7.03324 9.56667C7.01101 10.2778 6.73879 10.8944 6.21657 11.4167L6.1999 11.4333C6.07768 11.5556 5.9249 11.6167 5.74157 11.6167C5.55824 11.6167 5.3999 11.5556 5.26657 11.4333C5.13324 11.3 5.06657 11.1417 5.06657 10.9583C5.06657 10.775 5.13324 10.6167 5.26657 10.4833C5.52212 10.2278 5.66379 9.925 5.69157 9.575C5.71935 9.225 5.60546 8.92222 5.3499 8.66667L4.56657 7.9C4.43324 7.76667 4.36657 7.60834 4.36657 7.425C4.36657 7.24167 4.43324 7.08334 4.56657 6.95L5.51657 6.01667C5.6499 5.88333 5.71657 5.725 5.71657 5.54167C5.71657 5.35834 5.6499 5.2 5.51657 5.06667L4.4499 6.13334C3.69435 6.88889 3.31657 7.79167 3.31657 8.84167C3.31657 9.89167 3.69435 10.7944 4.4499 11.55C5.20546 12.3056 6.11101 12.6833 7.16657 12.6833C8.22212 12.6833 9.12768 12.3056 9.88324 11.55L13.8666 7.55C13.9999 7.41667 14.1582 7.35 14.3416 7.35C14.5249 7.35 14.6832 7.41667 14.8166 7.55C14.9499 7.68334 15.0166 7.84167 15.0166 8.025C15.0166 8.20834 14.9499 8.36667 14.8166 8.5L10.8166 12.4833C9.80546 13.4944 8.58879 14 7.16657 14C5.74435 14 4.52768 13.4944 3.51657 12.4833Z" fill="#014748"/>
</svg>
