<svg width="22" height="21" viewBox="0 0 22 21" fill="none" xmlns="http://www.w3.org/2000/svg">
<path d="M1.7 12C1.22767 12 0.826333 11.8347 0.496 11.504C0.165333 11.1737 0 10.7723 0 10.3V8.2C0 7.85333 0.113333 7.56667 0.34 7.34C0.566667 7.11333 0.853333 7 1.2 7C1.54667 7 1.83333 7.11333 2.06 7.34C2.28667 7.56667 2.4 7.85333 2.4 8.2V9.6H6.6V1.2C6.6 0.853333 6.71333 0.566666 6.94 0.339999C7.16667 0.113333 7.45333 0 7.8 0C8.14667 0 8.43333 0.113333 8.66 0.339999C8.88667 0.566666 9 0.853333 9 1.2V10.3C9 10.7723 8.83467 11.1737 8.504 11.504C8.17367 11.8347 7.77233 12 7.3 12H1.7ZM13.7 12C13.2183 12 12.8145 11.8372 12.4885 11.5115C12.1628 11.1855 12 10.7817 12 10.3V9.2C12 8.88 12.12 8.6 12.36 8.36C12.6 8.12 12.88 8 13.2 8C13.52 8 13.8 8.12 14.04 8.36C14.28 8.6 14.4 8.88 14.4 9.2V9.6H19.6V6.95H13.7C13.2183 6.95 12.8145 6.78717 12.4885 6.4615C12.1628 6.1355 12 5.73167 12 5.25V1.7C12 1.21833 12.1628 0.814668 12.4885 0.489001C12.8145 0.163001 13.2183 0 13.7 0H20.3C20.7817 0 21.1853 0.163001 21.511 0.489001C21.837 0.814668 22 1.21833 22 1.7V2.8C22 3.12 21.88 3.4 21.64 3.64C21.4 3.88 21.12 4 20.8 4C20.48 4 20.2 3.88 19.96 3.64C19.72 3.4 19.6 3.12 19.6 2.8V2.4H14.4V5.05H20.3C20.7817 5.05 21.1853 5.21283 21.511 5.5385C21.837 5.8645 22 6.26833 22 6.75V10.3C22 10.7817 21.837 11.1855 21.511 11.5115C21.1853 11.8372 20.7817 12 20.3 12H13.7Z" fill="#9C9C9C"/>
<rect x="22" y="19" width="2" height="22" rx="1" transform="rotate(90 22 19)" fill="#FED643"/>
</svg>
