<svg width="24" height="24" viewBox="0 0 40 32" fill="none" xmlns="http://www.w3.org/2000/svg">
<path d="M4 32C2.9 32 1.95833 31.6083 1.175 30.825C0.391667 30.0417 0 29.1 0 28V4C0 2.9 0.391667 1.95833 1.175 1.175C1.95833 0.391667 2.9 0 4 0H36C37.1 0 38.0417 0.391667 38.825 1.175C39.6083 1.95833 40 2.9 40 4V28C40 29.1 39.6083 30.0417 38.825 30.825C38.0417 31.6083 37.1 32 36 32H4ZM20 17.65C20.1667 17.65 20.3417 17.625 20.525 17.575C20.7083 17.525 20.8833 17.45 21.05 17.35L35.2 8.5C35.4667 8.33333 35.6667 8.125 35.8 7.875C35.9333 7.625 36 7.35 36 7.05C36 6.38333 35.7167 5.88333 35.15 5.55C34.5833 5.21667 34 5.23333 33.4 5.6L20 14L6.6 5.6C6 5.23333 5.41667 5.225 4.85 5.575C4.28333 5.925 4 6.41667 4 7.05C4 7.38333 4.06667 7.675 4.2 7.925C4.33333 8.175 4.53333 8.36667 4.8 8.5L18.95 17.35C19.1167 17.45 19.2917 17.525 19.475 17.575C19.6583 17.625 19.8333 17.65 20 17.65Z" fill="#b2b2b2"/>
</svg>
