<svg width="24" height="23" viewBox="0 0 24 23" fill="none" xmlns="http://www.w3.org/2000/svg">
<path d="M23.395 3.081C22.907 2.874 22.342 3.079 22.105 3.553C21.881 4.001 21.582 4.276 21.191 4.391C20.579 4.574 19.848 4.339 19.506 4.138C19.055 3.873 18.532 3.471 17.979 3.046C16.214 1.688 14.018 0 11 0C8.58605 0 7.34605 1.239 5.29305 3.293C4.90205 3.684 4.89905 4.32 5.29005 4.71C5.67005 5.092 6.28005 5.104 6.67205 4.74C6.68205 4.731 6.69205 4.721 6.70205 4.712C7.25405 4.286 10.732 4.7 12.252 5.908C14.511 7.703 16.142 9 18 9C20.659 9 22.879 7.259 23.94 4.342C24.121 3.844 23.882 3.291 23.395 3.081ZM18.395 10.081C17.907 9.874 17.342 10.079 17.105 10.553C16.881 11.001 16.582 11.276 16.191 11.391C15.579 11.571 14.848 11.339 14.506 11.138C14.055 10.873 13.532 10.471 12.979 10.046C11.214 8.688 9.01805 7 6.00005 7C3.58605 7 2.34605 8.239 0.293045 10.293C-0.0979547 10.684 -0.100955 11.32 0.290045 11.71C0.670045 12.092 1.28105 12.105 1.67305 11.74C1.68305 11.731 1.69305 11.721 1.70305 11.712C2.25405 11.286 5.73405 11.7 7.25305 12.908C9.51105 14.703 11.142 16 13 16C15.659 16 17.879 14.259 18.94 11.342C19.121 10.844 18.882 10.291 18.395 10.081Z" fill="#9C9C9C"/>
<rect x="23.9993" y="21" width="2" height="24" rx="1" transform="rotate(90 23.9993 21)" fill="#00BCFF"/>
</svg>
