<svg width="24" height="24" viewBox="0 0 48 48" fill="none" xmlns="http://www.w3.org/2000/svg">
<path d="M40.803 6.97817C38.6028 4.75665 35.9823 2.9955 33.0943 1.79745C30.2063 0.599391 27.1086 -0.0115825 23.982 0.000166275C10.881 0.000166275 0.204 10.6742 0.192 23.7782C0.192 27.9752 1.29 32.0582 3.363 35.6732L0 48.0002L12.612 44.6942C16.0995 46.5969 20.0093 47.5924 23.982 47.5892H23.994C37.098 47.5892 47.772 36.9152 47.784 23.7992C47.7867 20.6733 47.171 17.5779 45.9724 14.691C44.7737 11.8041 43.0189 9.18286 40.803 6.97817ZM23.982 43.5632C20.4395 43.5604 16.9627 42.6072 13.914 40.8032L13.194 40.3712L5.712 42.3332L7.71 35.0342L7.242 34.2812C5.26142 31.1321 4.21394 27.4862 4.221 23.7662C4.221 12.8882 13.092 4.01417 23.994 4.01417C26.5912 4.00951 29.1637 4.51899 31.5631 5.51324C33.9624 6.50749 36.1413 7.96685 37.974 9.80717C39.8127 11.6406 41.2704 13.8198 42.2631 16.2191C43.2558 18.6185 43.7638 21.1906 43.758 23.7872C43.746 34.7042 34.875 43.5632 23.982 43.5632ZM34.827 28.7612C34.236 28.4642 31.317 27.0272 30.768 26.8232C30.222 26.6282 29.823 26.5262 29.433 27.1202C29.034 27.7112 27.894 29.0582 27.552 29.4452C27.21 29.8442 26.856 29.8892 26.262 29.5952C25.671 29.2952 23.754 28.6712 21.486 26.6402C19.716 25.0652 18.531 23.1152 18.177 22.5242C17.835 21.9302 18.144 21.6122 18.441 21.3152C18.702 21.0512 19.032 20.6192 19.329 20.2772C19.629 19.9352 19.728 19.6832 19.923 19.2872C20.118 18.8852 20.025 18.5432 19.878 18.2462C19.728 17.9492 18.543 15.0182 18.042 13.8362C17.562 12.6692 17.073 12.8312 16.707 12.8162C16.365 12.7952 15.966 12.7952 15.567 12.7952C15.2657 12.8028 14.9693 12.8726 14.6962 13.0001C14.4231 13.1276 14.1793 13.3101 13.98 13.5362C13.434 14.1302 11.907 15.5672 11.907 18.4982C11.907 21.4292 14.037 24.2462 14.337 24.6452C14.631 25.0442 18.519 31.0412 24.486 33.6212C25.896 34.2362 27.006 34.5992 27.873 34.8752C29.298 35.3312 30.585 35.2622 31.611 35.1152C32.751 34.9412 35.124 33.6752 35.625 32.2862C36.117 30.8942 36.117 29.7062 35.967 29.4572C35.82 29.2052 35.421 29.0582 34.827 28.7612Z" fill="#b2b2b2"/>
</svg>
