<svg xmlns="http://www.w3.org/2000/svg" width="36" height="21" viewBox="0 0 36 21" fill="none">
<path d="M20.6 9.6V6.95H14.7C14.2183 6.95 13.8145 6.78717 13.4885 6.4615C13.1628 6.1355 13 5.73167 13 5.25V1.7C13 1.2 13.1583 0.791667 13.475 0.475C13.7917 0.158333 14.2 0 14.7 0H21.8C22.1467 0 22.4333 0.113333 22.66 0.339999C22.8867 0.566666 23 0.853333 23 1.2C23 1.54667 22.8867 1.83333 22.66 2.06C22.4333 2.28667 22.1467 2.4 21.8 2.4H15.4V5.05H21.3C21.7817 5.05 22.1853 5.21283 22.511 5.5385C22.837 5.8645 23 6.26833 23 6.75V10.3C23 10.8 22.8417 11.2083 22.525 11.525C22.2083 11.8417 21.8 12 21.3 12H14.2C13.8533 12 13.5667 11.8867 13.34 11.66C13.1133 11.4333 13 11.1467 13 10.8C13 10.4533 13.1133 10.1667 13.34 9.94C13.5667 9.71333 13.8533 9.6 14.2 9.6H20.6ZM33.6 9.6V6.95H27.7C27.2183 6.95 26.8147 6.78717 26.489 6.4615C26.163 6.1355 26 5.73167 26 5.25V1.7C26 1.2 26.1583 0.791667 26.475 0.475C26.7917 0.158333 27.2 0 27.7 0H34.8C35.1467 0 35.4333 0.113333 35.66 0.339999C35.8867 0.566666 36 0.853333 36 1.2C36 1.54667 35.8867 1.83333 35.66 2.06C35.4333 2.28667 35.1467 2.4 34.8 2.4H28.4V5.05H34.3C34.7817 5.05 35.1853 5.21283 35.511 5.5385C35.837 5.8645 36 6.26833 36 6.75V10.3C36 10.8 35.8417 11.2083 35.525 11.525C35.2083 11.8417 34.8 12 34.3 12H27.2C26.8533 12 26.5667 11.8867 26.34 11.66C26.1133 11.4333 26 11.1467 26 10.8C26 10.4533 26.1133 10.1667 26.34 9.94C26.5667 9.71333 26.8533 9.6 27.2 9.6H33.6ZM1.7 12C1.21833 12 0.8145 11.8372 0.4885 11.5115C0.162834 11.1855 0 10.7817 0 10.3V1.7C0 1.21833 0.162834 0.814668 0.4885 0.489001C0.8145 0.163001 1.21833 0 1.7 0H8.65C9.13167 0 9.5355 0.163001 9.8615 0.489001C10.1872 0.814668 10.35 1.21833 10.35 1.7V2.85C10.35 3.16733 10.23 3.43833 9.99 3.663C9.75 3.88767 9.47 4 9.15 4C8.78333 4 8.49167 3.89167 8.275 3.675C8.05833 3.45833 7.95 3.16667 7.95 2.8V2.4H2.4V9.6H7.95V9.2C7.95 8.88 8.05833 8.6 8.275 8.36C8.49167 8.12 8.782 8 9.146 8C9.482 8 9.76667 8.12 10 8.36C10.2333 8.6 10.35 8.88 10.35 9.2V10.3C10.35 10.7817 10.1872 11.1855 9.8615 11.5115C9.5355 11.8372 9.13167 12 8.65 12H1.7Z" fill="#9C9C9C"/>
<rect x="36" y="19" width="2" height="36" rx="1" transform="rotate(90 36 19)" fill="#31AEED"/>
</svg>