<svg xmlns="http://www.w3.org/2000/svg" width="36" height="21" fill="none" viewBox="0 0 36 21"><path fill="#9c9c9c" d="M20.6 9.6V6.95h-5.9q-.723 0-1.211-.489A1.65 1.65 0 0 1 13 5.25V1.7q0-.749.475-1.224T14.7 0h7.1q.52 0 .86.34t.34.86-.34.86-.86.34h-6.4v2.65h5.9q.723 0 1.211.489Q23 6.027 23 6.75v3.55q0 .75-.475 1.225T21.3 12h-7.1q-.52 0-.86-.34a1.17 1.17 0 0 1-.34-.86q0-.52.34-.86t.86-.34Zm13 0V6.95h-5.9q-.723 0-1.211-.489A1.65 1.65 0 0 1 26 5.25V1.7q0-.749.475-1.224T27.7 0h7.1q.52 0 .86.34t.34.86-.34.86-.86.34h-6.4v2.65h5.9q.722 0 1.211.489Q36 6.027 36 6.75v3.55q0 .75-.475 1.225T34.3 12h-7.1q-.52 0-.86-.34a1.17 1.17 0 0 1-.34-.86q0-.52.34-.86t.86-.34ZM1.7 12q-.723 0-1.212-.489A1.65 1.65 0 0 1 0 10.3V1.7Q0 .978.489.489.978 0 1.7 0h6.95q.723 0 1.211.489.489.49.489 1.211v1.15q0 .476-.36.813A1.2 1.2 0 0 1 9.15 4q-.55 0-.875-.325T7.95 2.8v-.4H2.4v7.2h5.55v-.4q0-.48.325-.84T9.146 8q.504 0 .854.36t.35.84v1.1q0 .723-.489 1.211Q9.374 12 8.65 12Z"/><rect width="2" height="36" x="36" y="19" fill="#31aeed" rx="1" transform="rotate(90 36 19)"/></svg>