<svg xmlns="http://www.w3.org/2000/svg" width="32" height="23" fill="none" viewBox="0 0 32 23"><path fill="#6bd5d7" d="M5.464.6V23h-2.08V.6Zm8.64 21.408V23H5.368v-.992Zm1.952-4.192L14.2 23H8.888l1.152-.992q1.695 0 2.752-.512a4.64 4.64 0 0 0 1.76-1.504q.672-.96 1.184-2.176ZM3.48 20.664V23H.92v-.32h.416q.832 0 1.408-.576.608-.608.64-1.44Zm0-17.728h-.096a1.98 1.98 0 0 0-.64-1.408A1.87 1.87 0 0 0 1.336.92H.92V.6h2.56Zm1.888 0V.6h2.56v.32h-.416q-.833 0-1.44.608a2.03 2.03 0 0 0-.608 1.408ZM23.012.6V23h-2.08V.6Zm7.264 10.88v.96h-7.36v-.96ZM31.652.6v.992h-8.736V.6Zm-1.376 11.776v2.112h-.32v-.48q0-.64-.448-1.088a1.43 1.43 0 0 0-1.088-.48v-.064Zm0-2.944v2.112H28.42v-.064a1.6 1.6 0 0 0 1.088-.48 1.6 1.6 0 0 0 .448-1.12v-.448Zm1.376-7.936V3.64h-.32v-.48q0-.64-.48-1.088a1.43 1.43 0 0 0-1.088-.48v-.096Zm0-1.472v.928L27.748.6q.704 0 1.472-.096A22 22 0 0 0 30.692.28q.672-.127.96-.256m-10.624 20.64V23h-2.56v-.32h.416q.832 0 1.408-.576.608-.608.64-1.44Zm0-17.728h-.096q0-.832-.608-1.408a1.97 1.97 0 0 0-1.44-.608H18.5L18.468.6h2.56Zm1.888 17.728h.096a2.15 2.15 0 0 0 .608 1.44q.608.576 1.44.576h.416V23h-2.56Z"/></svg>