<svg xmlns="http://www.w3.org/2000/svg" width="32" height="23" viewBox="0 0 32 23" fill="none">
<path d="M5.46398 0.600002V23H3.38398V0.600002H5.46398ZM14.104 22.008V23H5.36798V22.008H14.104ZM16.056 17.816L14.2 23H8.88798L10.04 22.008C11.1707 22.008 12.088 21.8373 12.792 21.496C13.5173 21.1333 14.104 20.632 14.552 19.992C15 19.352 15.3947 18.6267 15.736 17.816H16.056ZM3.47998 20.664V23H0.919983V22.68C0.919983 22.68 0.983983 22.68 1.11198 22.68C1.26132 22.68 1.33598 22.68 1.33598 22.68C1.89065 22.68 2.35998 22.488 2.74398 22.104C3.14932 21.6987 3.36265 21.2187 3.38398 20.664H3.47998ZM3.47998 2.936H3.38398C3.36265 2.38134 3.14932 1.912 2.74398 1.528C2.35998 1.12267 1.89065 0.920002 1.33598 0.920002C1.33598 0.920002 1.26132 0.920002 1.11198 0.920002C0.983983 0.920002 0.919983 0.920002 0.919983 0.920002V0.600002H3.47998V2.936ZM5.36798 2.936V0.600002H7.92798V0.920002C7.90665 0.920002 7.83198 0.920002 7.70398 0.920002C7.57598 0.920002 7.51198 0.920002 7.51198 0.920002C6.95732 0.920002 6.47732 1.12267 6.07198 1.528C5.68798 1.912 5.48532 2.38134 5.46398 2.936H5.36798Z" fill="#6BD5D7"/>
<path d="M23.012 0.600002V23H20.932V0.600002H23.012ZM30.276 11.48V12.44H22.916V11.48H30.276ZM31.652 0.600002V1.592H22.916V0.600002H31.652ZM30.276 12.376V14.488H29.956V14.008C29.956 13.5813 29.8067 13.2187 29.508 12.92C29.2093 12.6 28.8466 12.44 28.42 12.44V12.376H30.276ZM30.276 9.432V11.544H28.42V11.48C28.8466 11.4587 29.2093 11.2987 29.508 11C29.8067 10.68 29.956 10.3067 29.956 9.88V9.432H30.276ZM31.652 1.496V3.64H31.332V3.16C31.332 2.73334 31.172 2.37067 30.852 2.072C30.5533 1.752 30.1907 1.592 29.764 1.592V1.496H31.652ZM31.652 0.0240021V0.952003L27.748 0.600002C28.2173 0.600002 28.708 0.568003 29.22 0.504004C29.7533 0.440003 30.244 0.365336 30.692 0.280003C31.14 0.194669 31.46 0.109336 31.652 0.0240021ZM21.028 20.664V23H18.468V22.68C18.468 22.68 18.532 22.68 18.66 22.68C18.8093 22.68 18.884 22.68 18.884 22.68C19.4387 22.68 19.908 22.488 20.292 22.104C20.6973 21.6987 20.9107 21.2187 20.932 20.664H21.028ZM21.028 2.936H20.932C20.932 2.38134 20.7293 1.912 20.324 1.528C19.9187 1.12267 19.4387 0.920002 18.884 0.920002C18.884 0.920002 18.82 0.920002 18.692 0.920002C18.564 0.920002 18.5 0.920002 18.5 0.920002L18.468 0.600002H21.028V2.936ZM22.916 20.664H23.012C23.0333 21.2187 23.236 21.6987 23.62 22.104C24.0253 22.488 24.5053 22.68 25.06 22.68C25.06 22.68 25.124 22.68 25.252 22.68C25.38 22.68 25.4546 22.68 25.476 22.68V23H22.916V20.664Z" fill="#6BD5D7"/>
</svg>