<svg xmlns="http://www.w3.org/2000/svg" width="48" height="21" viewBox="0 0 48 21" fill="none">
<path d="M0 10.8V1.2C0 0.853333 0.113333 0.566666 0.34 0.339999C0.566667 0.113333 0.853333 0 1.2 0C1.54667 0 1.83333 0.113333 2.06 0.339999C2.28667 0.566666 2.4 0.853333 2.4 1.2V4.45H7.8V1.2C7.8 0.853333 7.91333 0.566666 8.14 0.339999C8.36667 0.113333 8.65333 0 9 0C9.34667 0 9.63333 0.113333 9.86 0.339999C10.0867 0.566666 10.2 0.853333 10.2 1.2V10.8C10.2 11.1467 10.0867 11.4333 9.86 11.66C9.63333 11.8867 9.34667 12 9 12C8.65333 12 8.36667 11.8867 8.14 11.66C7.91333 11.4333 7.8 11.1467 7.8 10.8V6.85H2.4V10.8C2.4 11.1467 2.28667 11.4333 2.06 11.66C1.83333 11.8867 1.54667 12 1.2 12C0.853333 12 0.566667 11.8867 0.34 11.66C0.113333 11.4333 0 11.1467 0 10.8ZM15.8 10.8V2.4H13.5C13.1533 2.4 12.8667 2.28667 12.64 2.06C12.4133 1.83333 12.3 1.54667 12.3 1.2C12.3 0.853333 12.4133 0.566666 12.64 0.339999C12.8667 0.113333 13.1533 0 13.5 0H20.5C20.8467 0 21.1333 0.113333 21.36 0.339999C21.5867 0.566666 21.7 0.853333 21.7 1.2C21.7 1.54667 21.5867 1.83333 21.36 2.06C21.1333 2.28667 20.8467 2.4 20.5 2.4H18.2V10.8C18.2 11.1467 18.0867 11.4333 17.86 11.66C17.6333 11.8867 17.3467 12 17 12C16.6533 12 16.3667 11.8867 16.14 11.66C15.9133 11.4333 15.8 11.1467 15.8 10.8ZM23.8 10.8V1.7C23.8 1.2 23.9583 0.791667 24.275 0.475C24.5917 0.158333 25 0 25.5 0H35.5C36 0 36.4083 0.158333 36.725 0.475C37.0417 0.791667 37.2 1.2 37.2 1.7V10.8C37.2 11.1467 37.0867 11.4333 36.86 11.66C36.6333 11.8867 36.3467 12 36 12C35.6533 12 35.3667 11.8867 35.14 11.66C34.9133 11.4333 34.8 11.1467 34.8 10.8V2.4H31.7V8.7C31.7 9.04667 31.5867 9.33333 31.36 9.56C31.1333 9.78667 30.8467 9.9 30.5 9.9C30.1533 9.9 29.8667 9.78667 29.64 9.56C29.4133 9.33333 29.3 9.04667 29.3 8.7V2.4H26.2V10.8C26.2 11.1467 26.0867 11.4333 25.86 11.66C25.6333 11.8867 25.3467 12 25 12C24.6533 12 24.3667 11.8867 24.14 11.66C23.9133 11.4333 23.8 11.1467 23.8 10.8ZM41.25 12C40.95 12 40.6833 11.8917 40.45 11.675C40.2167 11.4583 40.1 11.2 40.1 10.9V1.2C40.1 0.853333 40.2133 0.566666 40.44 0.339999C40.6667 0.113333 40.9533 0 41.3 0C41.6467 0 41.9333 0.113333 42.16 0.339999C42.3867 0.566666 42.5 0.853333 42.5 1.2V9.6H46.8C47.1467 9.6 47.4333 9.71333 47.66 9.94C47.8867 10.1667 48 10.4533 48 10.8C48 11.1467 47.8867 11.4333 47.66 11.66C47.4333 11.8867 47.1467 12 46.8 12H41.25Z" fill="#9C9C9C"/>
<rect x="48" y="19" width="2" height="48" rx="1" transform="rotate(90 48 19)" fill="#F1692F"/>
</svg>