<svg xmlns="http://www.w3.org/2000/svg" width="48" height="21" fill="none" viewBox="0 0 48 21"><path fill="#9c9c9c" d="M0 10.8V1.2Q0 .68.34.34T1.2 0t.86.34.34.86v3.25h5.4V1.2q0-.52.34-.86T9 0t.86.34.34.86v9.6q0 .52-.34.86T9 12t-.86-.34a1.17 1.17 0 0 1-.34-.86V6.85H2.4v3.95q0 .52-.34.86T1.2 12t-.86-.34A1.17 1.17 0 0 1 0 10.8m15.8 0V2.4h-2.3q-.52 0-.86-.34a1.17 1.17 0 0 1-.34-.86q0-.52.34-.86T13.5 0h7q.52 0 .86.34t.34.86-.34.86-.86.34h-2.3v8.4q0 .52-.34.86T17 12t-.86-.34a1.17 1.17 0 0 1-.34-.86m8 0V1.7q0-.75.475-1.225T25.5 0h10q.75 0 1.225.475T37.2 1.7v9.1q0 .52-.34.86T36 12t-.86-.34a1.17 1.17 0 0 1-.34-.86V2.4h-3.1v6.3q0 .52-.34.86t-.86.34-.86-.34a1.17 1.17 0 0 1-.34-.86V2.4h-3.1v8.4q0 .52-.34.86T25 12t-.86-.34a1.17 1.17 0 0 1-.34-.86M41.25 12q-.45 0-.8-.325a1.02 1.02 0 0 1-.35-.775V1.2q0-.52.34-.86T41.3 0t.86.34.34.86v8.4h4.3q.52 0 .86.34t.34.86-.34.86-.86.34Z"/><rect width="2" height="48" x="48" y="19" fill="#f1692f" rx="1" transform="rotate(90 48 19)"/></svg>