<svg xmlns="http://www.w3.org/2000/svg" width="22" height="21" fill="none" viewBox="0 0 22 21"><path fill="#9c9c9c" d="M1.7 12q-.708 0-1.204-.496A1.64 1.64 0 0 1 0 10.3V8.2q0-.52.34-.86T1.2 7t.86.34.34.86v1.4h4.2V1.2q0-.52.34-.86T7.8 0t.86.34.34.86v9.1q0 .709-.496 1.204-.495.495-1.204.496Zm12 0q-.723 0-1.211-.489A1.65 1.65 0 0 1 12 10.3V9.2q0-.48.36-.84T13.2 8t.84.36.36.84v.4h5.2V6.95h-5.9q-.723 0-1.211-.489A1.65 1.65 0 0 1 12 5.25V1.7q0-.72.489-1.21T13.7 0h6.6q.723 0 1.211.489Q22 .979 22 1.7v1.1q0 .48-.36.84T20.8 4t-.84-.36-.36-.84v-.4h-5.2v2.65h5.9q.723 0 1.211.489Q22 6.027 22 6.75v3.55q0 .723-.489 1.211-.49.489-1.211.489Z"/><rect width="2" height="22" x="22" y="19" fill="#fed643" rx="1" transform="rotate(90 22 19)"/></svg>