<svg xmlns="http://www.w3.org/2000/svg" width="63" height="46" fill="none" viewBox="0 0 63 46"><path fill="#6bd5d7" d="M9.928 1.2V46h-4.16V1.2Zm17.28 42.816V46H9.736v-1.984Zm3.904-8.384L27.4 46H16.776l2.304-1.984q3.392 0 5.504-1.024 2.175-1.088 3.52-3.008t2.368-4.352ZM5.96 41.328V46H.84v-.64h.832q1.665 0 2.816-1.152 1.215-1.215 1.28-2.88Zm0-35.456h-.192q-.065-1.665-1.28-2.816Q3.336 1.84 1.672 1.84H.84V1.2h5.12Zm3.776 0V1.2h5.12v.64h-.832q-1.665 0-2.88 1.216-1.152 1.152-1.216 2.816ZM44.928 1.2V46h-4.16V1.2Zm14.528 21.76v1.92h-14.72v-1.92ZM62.208 1.2v1.984H44.736V1.2Zm-2.752 23.552v4.224h-.64v-.96q0-1.28-.896-2.176-.896-.96-2.176-.96v-.128Zm0-5.888v4.224h-3.712v-.128A3.2 3.2 0 0 0 57.92 22q.896-.96.896-2.24v-.896Zm2.752-15.872V7.28h-.64v-.96q0-1.28-.96-2.176-.896-.96-2.176-.96v-.192Zm0-2.944v1.856L54.4 1.2q1.408 0 2.944-.192A44 44 0 0 0 60.288.56q1.344-.255 1.92-.512M40.96 41.328V46h-5.12v-.64h.832q1.665 0 2.816-1.152 1.215-1.215 1.28-2.88Zm0-35.456h-.192q0-1.665-1.216-2.816-1.215-1.216-2.88-1.216h-.768l-.064-.64h5.12Zm3.776 35.456h.192a4.3 4.3 0 0 0 1.216 2.88q1.215 1.152 2.88 1.152h.832V46h-5.12Z"/></svg>