<svg xmlns="http://www.w3.org/2000/svg" width="63" height="46" viewBox="0 0 63 46" fill="none">
<path d="M9.92797 1.2V46H5.76797V1.2H9.92797ZM27.208 44.016V46H9.73597V44.016H27.208ZM31.112 35.632L27.4 46H16.776L19.08 44.016C21.3413 44.016 23.176 43.6747 24.584 42.992C26.0346 42.2667 27.208 41.264 28.104 39.984C29 38.704 29.7893 37.2533 30.472 35.632H31.112ZM5.95997 41.328V46H0.839966V45.36C0.839966 45.36 0.967966 45.36 1.22397 45.36C1.52263 45.36 1.67197 45.36 1.67197 45.36C2.7813 45.36 3.71997 44.976 4.48797 44.208C5.29863 43.3973 5.7253 42.4373 5.76797 41.328H5.95997ZM5.95997 5.872H5.76797C5.7253 4.76266 5.29863 3.824 4.48797 3.056C3.71997 2.24533 2.7813 1.84 1.67197 1.84C1.67197 1.84 1.52263 1.84 1.22397 1.84C0.967966 1.84 0.839966 1.84 0.839966 1.84V1.2H5.95997V5.872ZM9.73597 5.872V1.2H14.856V1.84C14.8133 1.84 14.664 1.84 14.408 1.84C14.152 1.84 14.024 1.84 14.024 1.84C12.9146 1.84 11.9546 2.24533 11.144 3.056C10.376 3.824 9.97063 4.76266 9.92797 5.872H9.73597Z" fill="#6BD5D7"/>
<path d="M44.928 1.2V46H40.768V1.2H44.928ZM59.456 22.96V24.88H44.736V22.96H59.456ZM62.208 1.2V3.184H44.736V1.2H62.208ZM59.456 24.752V28.976H58.816V28.016C58.816 27.1627 58.5173 26.4373 57.92 25.84C57.3226 25.2 56.5973 24.88 55.744 24.88V24.752H59.456ZM59.456 18.864V23.088H55.744V22.96C56.5973 22.9173 57.3226 22.5973 57.92 22C58.5173 21.36 58.816 20.6133 58.816 19.76V18.864H59.456ZM62.208 2.992V7.28H61.568V6.32C61.568 5.46666 61.248 4.74133 60.608 4.144C60.0106 3.504 59.2853 3.184 58.432 3.184V2.992H62.208ZM62.208 0.0479965V1.904L54.4 1.2C55.3386 1.2 56.32 1.136 57.344 1.008C58.4106 0.879999 59.392 0.730665 60.288 0.559998C61.184 0.389331 61.824 0.218664 62.208 0.0479965ZM40.96 41.328V46H35.84V45.36C35.84 45.36 35.968 45.36 36.224 45.36C36.5226 45.36 36.672 45.36 36.672 45.36C37.7813 45.36 38.72 44.976 39.488 44.208C40.2986 43.3973 40.7253 42.4373 40.768 41.328H40.96ZM40.96 5.872H40.768C40.768 4.76266 40.3626 3.824 39.552 3.056C38.7413 2.24533 37.7813 1.84 36.672 1.84C36.672 1.84 36.544 1.84 36.288 1.84C36.032 1.84 35.904 1.84 35.904 1.84L35.84 1.2H40.96V5.872ZM44.736 41.328H44.928C44.9706 42.4373 45.376 43.3973 46.144 44.208C46.9546 44.976 47.9146 45.36 49.024 45.36C49.024 45.36 49.152 45.36 49.408 45.36C49.664 45.36 49.8133 45.36 49.856 45.36V46H44.736V41.328Z" fill="#6BD5D7"/>
</svg>