<svg xmlns="http://www.w3.org/2000/svg" width="24" height="23" fill="none" viewBox="0 0 24 23"><path fill="#9c9c9c" d="M23.395 3.081a1.003 1.003 0 0 0-1.29.472c-.224.448-.523.723-.914.838-.612.183-1.343-.052-1.685-.253-.451-.265-.974-.667-1.527-1.092C16.214 1.688 14.018 0 11 0 8.586 0 7.346 1.239 5.293 3.293A1.003 1.003 0 0 0 5.29 4.71c.38.382.99.394 1.382.03l.03-.028c.552-.426 4.03-.012 5.55 1.196C14.511 7.703 16.142 9 18 9c2.659 0 4.879-1.741 5.94-4.658a1 1 0 0 0-.545-1.261m-5 7a1.003 1.003 0 0 0-1.29.472c-.224.448-.523.723-.914.838-.612.18-1.343-.052-1.685-.253-.451-.265-.974-.667-1.527-1.092C11.214 8.688 9.019 7 6 7 3.586 7 2.346 8.239.293 10.293A1.003 1.003 0 0 0 .29 11.71a.994.994 0 0 0 1.383.03l.03-.028c.551-.426 4.031-.012 5.55 1.196C9.511 14.703 11.142 16 13 16c2.659 0 4.879-1.741 5.94-4.658a1 1 0 0 0-.545-1.261"/><rect width="2" height="24" x="23.999" y="21" fill="#00bcff" rx="1" transform="rotate(90 24 21)"/></svg>