<svg xmlns="http://www.w3.org/2000/svg" width="24" height="24" fill="none" viewBox="0 0 48 48"><path fill="#b2b2b2" d="M40.803 6.978A23.55 23.55 0 0 0 23.982 0C10.881 0 .204 10.674.192 23.778c0 4.197 1.098 8.28 3.171 11.895L0 48l12.612-3.306a23.7 23.7 0 0 0 11.37 2.895h.012c13.104 0 23.778-10.674 23.79-23.79a23.7 23.7 0 0 0-6.981-16.821M23.982 43.563a19.8 19.8 0 0 1-10.068-2.76l-.72-.432-7.482 1.962 1.998-7.299-.468-.753a19.7 19.7 0 0 1-3.021-10.515c0-10.878 8.871-19.752 19.773-19.752a19.68 19.68 0 0 1 13.98 5.793 19.68 19.68 0 0 1 5.784 13.98c-.012 10.917-8.883 19.776-19.776 19.776m10.845-14.802c-.591-.297-3.51-1.734-4.059-1.938-.546-.195-.945-.297-1.335.297-.399.591-1.539 1.938-1.881 2.325-.342.4-.696.444-1.29.15-.591-.3-2.508-.924-4.776-2.955-1.77-1.575-2.955-3.525-3.309-4.116-.342-.594-.033-.912.264-1.209.261-.264.591-.696.888-1.038.3-.342.399-.594.594-.99.195-.402.102-.744-.045-1.04-.15-.298-1.335-3.229-1.836-4.41-.48-1.168-.969-1.006-1.335-1.02-.342-.022-.741-.022-1.14-.022a2.2 2.2 0 0 0-1.587.741c-.546.594-2.073 2.031-2.073 4.962s2.13 5.748 2.43 6.147c.294.4 4.182 6.396 10.149 8.976 1.41.615 2.52.978 3.387 1.254 1.425.456 2.712.387 3.738.24 1.14-.174 3.513-1.44 4.014-2.829.492-1.392.492-2.58.342-2.829-.147-.252-.546-.399-1.14-.696"/></svg>